<svg width="134" height="44" viewBox="0 0 134 44" fill="none" xmlns="http://www.w3.org/2000/svg">
<path d="M25.6553 11.3616L20.8172 12.2066L24.1904 16.0416L26.6155 15.6082L25.6553 11.3616ZM17.1979 12.8349L14.7727 13.2574L18.1582 17.0816L20.571 16.6591L17.1979 12.8349ZM11.1657 13.8749L8.74055 14.3191L12.126 18.1432L14.5388 17.7207L11.1657 13.8749ZM5.12123 14.9582L3.91479 15.1641C3.27511 15.2765 2.7123 15.6078 2.34992 16.0851C1.98755 16.5624 1.85523 17.1468 1.98203 17.7099L2.46214 19.8332L8.49434 18.7824L5.12123 14.9582ZM2.46214 19.8332V30.6666C2.46214 31.8691 3.5701 32.8332 4.92426 32.8332H24.6212C25.9877 32.8332 27.0833 31.8691 27.0833 30.6666V19.8332H2.46214Z" fill="white"/>
<path d="M49.2484 30.876C49.7177 31.6867 50.1124 32.5293 50.4324 33.404H50.4644C49.7177 33.404 48.8857 33.436 47.9684 33.5C47.0511 33.5427 46.1124 33.532 45.1524 33.468H45.1204C44.9071 32.9773 44.6404 32.3907 44.3204 31.708C44.0004 31.0253 43.6484 30.3107 43.2644 29.564C42.8804 28.8173 42.4644 28.0813 42.0164 27.356C41.5684 26.6307 41.1204 25.9907 40.6724 25.436L40.6084 25.34C40.5444 25.8307 40.5124 26.4387 40.5124 27.164C40.5124 27.868 40.5231 28.604 40.5444 29.372C40.5871 30.1187 40.6297 30.8333 40.6724 31.516C40.7151 32.1987 40.7471 32.7427 40.7684 33.148C40.4057 33.2973 39.9257 33.3933 39.3284 33.436C38.7524 33.4787 38.1764 33.5 37.6004 33.5C37.0244 33.5213 36.5017 33.5213 36.0324 33.5C35.5844 33.4787 35.3071 33.4787 35.2004 33.5C35.2431 33.5 35.2751 33.212 35.2964 32.636C35.3177 32.0387 35.3284 31.26 35.3284 30.3C35.3284 29.34 35.3284 28.2413 35.3284 27.004C35.3284 25.7453 35.3177 24.4547 35.2964 23.132C35.2964 21.788 35.2751 20.4653 35.2324 19.164C35.2111 17.8413 35.1897 16.636 35.1684 15.548C35.1471 14.4387 35.1151 13.5 35.0724 12.732C35.0511 11.9427 35.0191 11.4093 34.9764 11.132C36.1711 10.9613 37.4831 10.8013 38.9124 10.652C40.3417 10.5027 41.8351 10.5133 43.3924 10.684C44.6511 10.748 45.7817 11.1107 46.7844 11.772C47.7871 12.4333 48.5657 13.2547 49.1204 14.236C49.6751 15.2173 49.9631 16.3053 49.9844 17.5C50.0271 18.6733 49.7177 19.8147 49.0564 20.924C48.6511 21.692 48.1071 22.332 47.4244 22.844C46.7631 23.356 45.9204 23.644 44.8964 23.708H44.7684H44.7364V23.74C45.1844 24.5293 45.6751 25.3187 46.2084 26.108C46.7417 26.876 47.2644 27.6547 47.7764 28.444C48.2884 29.2333 48.7791 30.044 49.2484 30.876ZM41.8564 15.132C41.1311 15.1533 40.3951 15.3133 39.6484 15.612C39.6697 15.8893 39.6804 16.2093 39.6804 16.572C39.7017 16.9133 39.7124 17.2653 39.7124 17.628C39.7124 17.9907 39.7124 18.3427 39.7124 18.684C39.7337 19.0253 39.7657 19.3133 39.8084 19.548H39.8404C40.3311 19.5907 40.8644 19.6227 41.4404 19.644C42.0164 19.6653 42.5604 19.6333 43.0724 19.548C43.4777 19.4627 43.7871 19.26 44.0004 18.94C44.2351 18.5987 44.3737 18.236 44.4164 17.852C44.4591 17.4467 44.4164 17.052 44.2884 16.668C44.1604 16.2627 43.9471 15.9427 43.6484 15.708C43.1791 15.2813 42.5817 15.0893 41.8564 15.132ZM61.7149 20.796C61.8642 21.4147 61.9816 21.9053 62.0669 22.268L64.4669 33.468V33.5C63.8269 33.628 63.1229 33.6707 62.3549 33.628C61.5869 33.6067 60.8616 33.5213 60.1789 33.372H60.1469C60.0189 33.0307 59.8909 32.6253 59.7629 32.156C59.6562 31.6867 59.5389 31.2067 59.4109 30.716C59.3042 30.2253 59.1869 29.756 59.0589 29.308C58.9309 28.86 58.7922 28.476 58.6429 28.156C58.3656 28.1133 58.1522 28.092 58.0029 28.092C57.8536 28.092 57.7149 28.092 57.5869 28.092C57.4802 28.092 57.3522 28.1027 57.2029 28.124C57.0749 28.124 56.8936 28.124 56.6589 28.124C56.5096 28.4653 56.3816 28.8707 56.2749 29.34C56.1896 29.788 56.0936 30.268 55.9869 30.78C55.9016 31.2707 55.8056 31.7507 55.6989 32.22C55.5922 32.6893 55.4429 33.1053 55.2509 33.468C55.2296 33.468 55.2082 33.4787 55.1869 33.5C55.1869 33.5 55.1762 33.5 55.1549 33.5C54.9842 33.5427 54.5576 33.5427 53.8749 33.5C53.1922 33.4573 52.1256 33.4467 50.6749 33.468C50.6536 33.468 50.6322 33.4573 50.6109 33.436C50.6536 33.2867 50.7282 32.8707 50.8349 32.188C50.9416 31.5053 51.0909 30.62 51.2829 29.532C51.4749 28.444 51.6989 27.196 51.9549 25.788C52.2322 24.3587 52.5522 22.844 52.9149 21.244C53.2776 19.644 53.6722 17.98 54.0989 16.252C54.5256 14.524 54.9949 12.8067 55.5069 11.1C55.6562 11.0787 55.8162 11.068 55.9869 11.068C56.1576 11.068 56.3816 11.068 56.6589 11.068C56.9362 11.068 57.2882 11.068 57.7149 11.068C58.1629 11.0467 58.7389 11.004 59.4429 10.94C59.5069 11.2173 59.6029 11.644 59.7309 12.22C59.8802 12.7747 60.0296 13.4147 60.1789 14.14C60.3496 14.844 60.5202 15.6013 60.6909 16.412C60.8829 17.2227 61.0642 18.0013 61.2349 18.748C61.4056 19.4947 61.5656 20.1773 61.7149 20.796ZM57.5869 24.38C57.9922 24.3587 58.3976 24.348 58.8029 24.348C58.5896 22.5133 58.3976 21.084 58.2269 20.06C58.0776 19.036 57.9389 18.3427 57.8109 17.98C57.7042 17.6173 57.5869 17.5427 57.4589 17.756C57.3522 17.948 57.2456 18.3533 57.1389 18.972C57.0536 19.5907 56.9469 20.3693 56.8189 21.308C56.7122 22.2467 56.5842 23.26 56.4349 24.348C56.7976 24.3693 57.1816 24.38 57.5869 24.38ZM78.2459 11.292C78.4592 11.292 78.6299 11.3027 78.7579 11.324V11.356C78.1606 13.276 77.4566 15.1533 76.6459 16.988C75.8352 18.8227 74.9926 20.6573 74.1179 22.492C73.2432 24.3053 72.3899 26.1293 71.5579 27.964C70.7259 29.7773 69.9899 31.6227 69.3499 33.5C69.2219 33.4787 69.0939 33.468 68.9659 33.468C68.8379 33.468 68.6992 33.468 68.5499 33.468C68.1019 33.468 67.6112 33.4787 67.0779 33.5C66.5446 33.5427 66.0326 33.564 65.5419 33.564C65.4139 33.564 65.2859 33.564 65.1579 33.564C65.0299 33.564 64.9019 33.5533 64.7739 33.532H64.7099C65.2646 31.804 65.9152 30.0013 66.6619 28.124C67.4086 26.2253 68.1552 24.3373 68.9019 22.46V22.396C68.6672 21.4573 68.3686 20.5293 68.0059 19.612C67.6432 18.6733 67.2592 17.7453 66.8539 16.828C66.4699 15.9107 66.0966 14.9933 65.7339 14.076C65.3712 13.1587 65.0832 12.252 64.8699 11.356C65.2966 11.356 65.7446 11.324 66.2139 11.26C66.6832 11.196 67.1526 11.164 67.6219 11.164C67.8779 11.164 68.1339 11.1853 68.3899 11.228C68.6459 11.2493 68.8912 11.3133 69.1259 11.42C69.2326 11.8893 69.3819 12.444 69.5739 13.084C69.7872 13.724 70.0006 14.3747 70.2139 15.036C70.4486 15.6973 70.6832 16.3267 70.9179 16.924C71.1739 17.5213 71.3979 18.0227 71.5899 18.428C71.8032 18.044 72.0166 17.5533 72.2299 16.956C72.4646 16.3373 72.6886 15.6973 72.9019 15.036C73.1366 14.3747 73.3606 13.724 73.5739 13.084C73.7872 12.444 73.9899 11.9107 74.1819 11.484C74.5659 11.3987 75.0779 11.3453 75.7179 11.324C76.3792 11.2813 76.9872 11.26 77.5419 11.26C77.7979 11.26 78.0326 11.2707 78.2459 11.292ZM89.6562 25.084C89.6562 25.1267 89.6242 25.148 89.5602 25.148C88.8988 25.2547 88.2055 25.34 87.4802 25.404C86.7762 25.4467 86.1042 25.5213 85.4642 25.628H85.4322C85.3255 26.972 85.2615 28.316 85.2402 29.66C85.2188 30.9827 85.1975 32.252 85.1762 33.468C84.7495 33.5107 84.2375 33.5427 83.6402 33.564C83.0642 33.5853 82.4882 33.596 81.9122 33.596C81.3362 33.596 80.8242 33.5853 80.3762 33.564C79.9495 33.5427 79.6935 33.5107 79.6082 33.468L79.5762 33.436C79.5762 32.156 79.5762 30.9613 79.5762 29.852C79.5762 28.7213 79.5762 27.6333 79.5762 26.588C79.5975 25.5427 79.6082 24.4973 79.6082 23.452C79.6082 22.3853 79.6082 21.2653 79.6082 20.092C79.6295 18.9187 79.6402 17.66 79.6402 16.316C79.6402 14.9507 79.6402 13.436 79.6402 11.772V11.74C80.0028 11.676 80.5255 11.612 81.2082 11.548C81.8908 11.484 82.6588 11.42 83.5122 11.356C84.3868 11.292 85.3042 11.2493 86.2642 11.228C87.2455 11.1853 88.2055 11.1747 89.1442 11.196C90.0828 11.196 90.9682 11.2387 91.8002 11.324C92.6322 11.4093 93.3468 11.5267 93.9442 11.676C93.9442 11.9533 93.9442 12.3053 93.9442 12.732C93.9655 13.1587 93.9762 13.6067 93.9762 14.076C93.9762 14.524 93.9762 14.9613 93.9762 15.388C93.9762 15.7933 93.9655 16.1347 93.9442 16.412C93.3682 16.4547 92.7175 16.4973 91.9922 16.54C91.2882 16.5827 90.5522 16.6253 89.7842 16.668C89.0375 16.6893 88.2802 16.7213 87.5122 16.764C86.7655 16.8067 86.0615 16.86 85.4002 16.924C85.1655 17.4787 85.0695 18.012 85.1122 18.524C85.1548 19.036 85.2722 19.4627 85.4642 19.804C85.4855 19.8253 85.5068 19.836 85.5282 19.836C85.8268 19.8787 86.1575 19.9107 86.5202 19.932C86.9042 19.932 87.2775 19.932 87.6402 19.932C88.0028 19.932 88.3548 19.9213 88.6962 19.9C89.0375 19.8787 89.3255 19.8573 89.5602 19.836C89.6242 19.9853 89.6562 20.2733 89.6562 20.7C89.6775 21.1267 89.6775 21.6067 89.6562 22.14C89.6348 22.652 89.6135 23.1747 89.5922 23.708C89.5922 24.2413 89.6135 24.7 89.6562 25.084ZM98.2047 11.004C98.7167 11.0253 99.4527 11.0253 100.413 11.004H101.181V11.132C101.181 12.9667 101.149 14.812 101.085 16.668C101.042 18.524 100.999 20.3907 100.957 22.268C100.935 24.124 100.935 25.98 100.957 27.836C100.978 29.692 101.042 31.5267 101.149 33.34C100.978 33.5107 100.615 33.6067 100.061 33.628C99.5273 33.6707 98.9407 33.6813 98.3007 33.66C97.682 33.6387 97.0847 33.6067 96.5087 33.564C95.9327 33.5427 95.538 33.564 95.3247 33.628C95.474 31.708 95.538 29.7773 95.5167 27.836C95.4953 25.8947 95.4527 23.9747 95.3887 22.076C95.346 20.156 95.314 18.268 95.2927 16.412C95.2927 14.5347 95.3887 12.7 95.5807 10.908V10.844C95.6873 10.8227 95.89 10.8333 96.1887 10.876C96.5087 10.8973 96.7433 10.908 96.8927 10.908C97.2767 10.9293 97.714 10.9613 98.2047 11.004ZM116.981 30.012C116.981 30.2253 116.992 30.4173 117.013 30.588C117.056 31.356 117.077 31.9427 117.077 32.348C117.077 32.732 117.045 33.02 116.981 33.212C116.938 33.3827 116.853 33.4787 116.725 33.5C116.597 33.5 116.416 33.5 116.181 33.5C115.946 33.4787 115.637 33.4787 115.253 33.5C114.89 33.5213 114.261 33.5427 113.365 33.564C112.49 33.5853 111.274 33.596 109.717 33.596C108.181 33.596 106.122 33.5747 103.541 33.532V32.956C103.605 31.356 103.658 29.916 103.701 28.636C103.744 27.3347 103.765 26.1293 103.765 25.02C103.786 23.8893 103.797 22.8013 103.797 21.756C103.797 20.7107 103.786 19.644 103.765 18.556C103.744 17.468 103.722 16.316 103.701 15.1C103.68 13.8627 103.658 12.4973 103.637 11.004C103.85 10.9187 104.181 10.8547 104.629 10.812C105.077 10.748 105.557 10.716 106.069 10.716C106.581 10.716 107.082 10.748 107.573 10.812C108.064 10.876 108.458 10.972 108.757 11.1C108.714 12.4867 108.693 13.916 108.693 15.388C108.714 16.8387 108.736 18.3 108.757 19.772C108.778 21.244 108.789 22.716 108.789 24.188C108.81 25.6387 108.81 27.0467 108.789 28.412V28.444C108.938 28.4013 109.216 28.3907 109.621 28.412C110.048 28.412 110.538 28.4227 111.093 28.444C111.648 28.4653 112.234 28.4973 112.853 28.54C113.493 28.5613 114.09 28.5827 114.645 28.604C115.221 28.6253 115.722 28.6467 116.149 28.668C116.597 28.668 116.906 28.6573 117.077 28.636C117.077 28.8707 117.066 29.1053 117.045 29.34C117.024 29.5533 117.002 29.7773 116.981 30.012ZM131.859 17.276C131.944 19.26 131.934 21.276 131.827 23.324L131.731 33.532C131.411 33.4893 131.059 33.468 130.675 33.468C130.291 33.468 129.907 33.468 129.523 33.468C129.139 33.468 128.766 33.4787 128.403 33.5C128.062 33.5 127.763 33.5 127.507 33.5C127.464 32.5827 127.432 31.5907 127.411 30.524C127.411 29.4573 127.4 28.3693 127.379 27.26C127.379 26.1507 127.347 25.0627 127.283 23.996C127.24 22.9293 127.166 21.948 127.059 21.052C126.91 21.2867 126.739 21.66 126.547 22.172C126.355 22.6627 126.163 23.1747 125.971 23.708C125.779 24.2413 125.598 24.7107 125.427 25.116C125.256 25.5213 125.128 25.724 125.043 25.724C124.936 25.724 124.808 25.6173 124.659 25.404C124.531 25.1693 124.392 24.8813 124.243 24.54C124.115 24.1987 123.976 23.836 123.827 23.452C123.678 23.068 123.55 22.716 123.443 22.396C123.336 22.076 123.24 21.8093 123.155 21.596C123.091 21.3827 123.059 21.276 123.059 21.276C122.888 23.2813 122.824 25.308 122.867 27.356C122.931 29.404 123.027 31.42 123.155 33.404C122.472 33.5107 121.726 33.5533 120.915 33.532C120.104 33.5107 119.358 33.5 118.675 33.5C118.632 33.5 118.6 33.468 118.579 33.404C118.558 33.3187 118.536 33.116 118.515 32.796C118.494 32.476 118.472 31.996 118.451 31.356C118.451 30.6947 118.451 29.8307 118.451 28.764C118.451 27.6973 118.451 26.3747 118.451 24.796C118.472 23.2173 118.483 21.34 118.483 19.164C118.504 16.988 118.526 14.4493 118.547 11.548C118.824 11.4627 119.144 11.4093 119.507 11.388C119.87 11.3667 120.243 11.3667 120.627 11.388C121.011 11.388 121.395 11.3987 121.779 11.42C122.163 11.42 122.536 11.4093 122.899 11.388H122.931C123.123 11.6013 123.315 11.932 123.507 12.38C123.699 12.8067 123.88 13.2653 124.051 13.756C124.222 14.2467 124.382 14.716 124.531 15.164C124.702 15.612 124.872 15.964 125.043 16.22C125.107 16.284 125.171 16.316 125.235 16.316C125.299 16.3373 125.395 16.1347 125.523 15.708C125.672 15.2813 125.822 14.7907 125.971 14.236C126.142 13.66 126.323 13.0947 126.515 12.54C126.728 11.9853 126.931 11.58 127.123 11.324C127.272 11.3453 127.539 11.3453 127.923 11.324C128.328 11.3027 128.755 11.2813 129.203 11.26C129.672 11.2387 130.142 11.228 130.611 11.228C131.102 11.2067 131.518 11.196 131.859 11.196C131.774 13.244 131.774 15.2707 131.859 17.276Z" fill="white"/>
</svg>
